<?xml version="1.0" encoding="utf-8"?>
<!-- Generator: Adobe Illustrator 21.0.0, SVG Export Plug-In . SVG Version: 6.00 Build 0)  -->
<svg version="1.1" id="Layer_1" xmlns="http://www.w3.org/2000/svg" xmlns:xlink="http://www.w3.org/1999/xlink" x="0px" y="0px"
	 viewBox="0 0 400 81" style="enable-background:new 0 0 400 81;" xml:space="preserve">
<style type="text/css">
	.st0{fill:#FFF16A;}
	.st1{fill:#F29100;}
	.st2{fill:#E84E1B;}
	.st3{fill:#59BBA9;}
	.st4{fill:#ED7630;}
	.st5{fill:#FFD231;}
	.st6{fill:#9C9B9B;}
</style>
<polygon class="st0" points="86.3,78 111.8,78 164.4,2.6 138.7,2.6 125.3,21.8 111.9,2.6 86.3,2.6 112.5,40.2 "/>
<polygon class="st1" points="111.6,78 59.2,2.6 33.5,2.6 86.1,78 "/>
<polygon class="st2" points="33.5,78 85.9,2.6 111.6,2.6 59,78 "/>
<polygon class="st3" points="111.9,2.6 86.3,2.6 99,20.8 "/>
<polygon class="st4" points="111.9,2.6 86.3,2.6 99,20.8 "/>
<polygon class="st5" points="111.8,78 86.3,78 98.9,59.8 "/>
<g>
	<g>
		<path class="st6" d="M163.5,78.1c-3.5,0-6.1-2.9-6.1-6.4c0-3.8,2.6-6.4,6.1-6.4c3.5,0,6.1,2.6,6.1,6.4
			C169.5,75.2,167.2,78.1,163.5,78.1L163.5,78.1z"/>
		<path class="st6" d="M191.8,15.3v11.9h13v6.9h-13v26.9c0,6.1,1.7,9.6,6.7,9.6c2.6,0,3.8-0.3,5.2-0.6l0.3,6.7
			c-1.7,0.6-4.6,1.4-8.1,1.4c-4.3,0-7.5-1.4-9.8-3.8c-2.6-2.6-3.5-7.2-3.5-13V34.1h-7.2v-6.9h7.8v-9.3L191.8,15.3z"/>
		<path class="st6" d="M259.3,51.5c0,18.5-12.7,26.3-24.9,26.3c-13.6,0-23.7-9.8-23.7-25.5c0-16.8,11-26.3,24.6-26.3
			C249.7,26,259.3,36.5,259.3,51.5z M219.9,52.1c0,11,6.4,19.1,15.1,19.1S250,63.1,250,51.8c0-8.4-4.3-19.1-14.8-19.1
			C224.8,32.7,219.9,42.5,219.9,52.1z"/>
		<path class="st6" d="M315.7,51.5c0,18.5-12.7,26.3-24.9,26.3c-13.6,0-23.7-9.8-23.7-25.5c0-16.8,11-26.3,24.6-26.3
			C306.2,26,315.7,36.5,315.7,51.5z M276.3,52.1c0,11,6.4,19.1,15.1,19.1s15.1-8.1,15.1-19.4c0-8.4-4.3-19.1-14.8-19.1
			C281.3,32.7,276.3,42.5,276.3,52.1z"/>
		<path class="st6" d="M327,4h9V77h-9V4z"/>
		<path class="st6" d="M350.2,67.7c2.6,1.7,7.5,3.5,11.9,3.5c6.7,0,9.6-3.2,9.6-7.5s-2.6-6.7-9.3-9.3c-9-3.2-13-8.1-13-14.2
			c0-8.1,6.4-14.5,17.1-14.5c4.9,0,9.6,1.4,12.2,3.2l-2.3,6.7c-2-1.2-5.5-2.9-10.1-2.9c-5.2,0-8.4,3.2-8.4,6.7
			c0,4.1,2.9,6.1,9.6,8.4c8.7,3.2,13,7.5,13,15.1c0,8.7-6.7,15.1-18.5,15.1c-5.5,0-10.4-1.4-13.9-3.5L350.2,67.7z"/>
	</g>
</g>
</svg>
