<svg id="Layer_1" data-name="Layer 1" xmlns="http://www.w3.org/2000/svg" viewBox="0 0 329 88.01"><defs><style>.cls-1{fill:#e7e7e7;}</style></defs><title>logo-text</title><path class="cls-1" d="M153.49,82.07a6.09,6.09,0,0,1-6-6.27,6,6,0,1,1,12,0c0,3.42-2.28,6.27-6,6.27Z" transform="translate(-38 -9.1)"/><path class="cls-1" d="M181.43,20.22V31.9h12.83v6.84H181.43V65.26c0,6,1.71,9.41,6.56,9.41a21.24,21.24,0,0,0,5.13-.57l.29,6.56a25,25,0,0,1-8,1.43,13.09,13.09,0,0,1-9.69-3.71c-2.57-2.57-3.42-7.13-3.42-12.83V38.75h-7.13V31.9h7.7V22.78Z" transform="translate(-38 -9.1)"/><path class="cls-1" d="M247.85,55.85c0,18.24-12.54,25.94-24.51,25.94C209.93,81.79,200,72.1,200,56.7c0-16.53,10.83-25.94,24.23-25.94C238.44,30.76,247.85,41,247.85,55.85Zm-38.77.57c0,10.83,6.27,18.81,14.82,18.81s14.82-8,14.82-19.1c0-8.27-4.28-18.81-14.54-18.81S209.08,47,209.08,56.42Z" transform="translate(-38 -9.1)"/><path class="cls-1" d="M303.43,55.85c0,18.24-12.54,25.94-24.51,25.94-13.4,0-23.37-9.69-23.37-25.09,0-16.53,10.83-25.94,24.23-25.94C294,30.76,303.43,41,303.43,55.85Zm-38.77.57c0,10.83,6.27,18.81,14.82,18.81s14.82-8,14.82-19.1c0-8.27-4.28-18.81-14.54-18.81S264.66,47,264.66,56.42Z" transform="translate(-38 -9.1)"/><path class="cls-1" d="M314.55,9.1h8.84V80.93h-8.84Z" transform="translate(-38 -9.1)"/><path class="cls-1" d="M337.35,71.81A23.58,23.58,0,0,0,349,75.23c6.56,0,9.41-3.14,9.41-7.41s-2.57-6.56-9.12-9.12c-8.84-3.14-12.83-8-12.83-14,0-8,6.27-14.25,16.82-14.25a23,23,0,0,1,12,3.14L363,40.17a19.8,19.8,0,0,0-10-2.85c-5.13,0-8.27,3.14-8.27,6.56,0,4,2.85,6,9.41,8.27C362.72,55.28,367,59.56,367,67c0,8.55-6.56,14.82-18.24,14.82a27.7,27.7,0,0,1-13.68-3.42Z" transform="translate(-38 -9.1)"/><path class="cls-1" d="M87.91,81.47H75.24L62.76,63.71,50.38,81.47H38L56.62,55.74l-17.95-25H51.34L63,47.49l11.71-16.7H87.14L69.19,55.46Z" transform="translate(-38 -9.1)"/><path class="cls-1" d="M124.18,82.91A43,43,0,0,1,121,89.53a17.32,17.32,0,0,1-3.65,4.37A13.06,13.06,0,0,1,113,96.34a17.88,17.88,0,0,1-5.47.77,23.35,23.35,0,0,1-6.48-.82A28.14,28.14,0,0,1,95.49,94l3.93-8.7a19.53,19.53,0,0,0,3.31,1.39,11.57,11.57,0,0,0,3.5.53A6.6,6.6,0,0,0,110.36,86a11.43,11.43,0,0,0,3.07-4.6L92.32,30.79H104.7l14.4,37.62,13.15-37.62h12.09Z" transform="translate(-38 -9.1)"/></svg>