<svg id="Layer_1" data-name="Layer 1" xmlns="http://www.w3.org/2000/svg" viewBox="0 0 70.9 18.9"><defs><style>.cls-1{fill:#606060;}</style></defs><title>logo-text-black</title><path class="cls-1" d="M364.9,672.8a1.32,1.32,0,0,1-1.3-1.3h0a1.3,1.3,0,1,1,1.3,1.3Z" transform="translate(-339.9 -657)"/><path class="cls-1" d="M370.9,659.4v2.5h2.8v1.5h-2.8v5.7c0,1.3.4,2,1.4,2a4.1,4.1,0,0,0,1.1-.1l.1,1.4a5.08,5.08,0,0,1-1.7.3,3.23,3.23,0,0,1-2.1-.8c-.6-.6-.7-1.5-.7-2.8v-5.8h-1.5v-1.5h1.7v-2Z" transform="translate(-339.9 -657)"/><path class="cls-1" d="M385.3,667.1c0,3.9-2.7,5.6-5.3,5.6-2.9,0-5-2.1-5-5.4,0-3.6,2.3-5.6,5.2-5.6S385.3,663.9,385.3,667.1Zm-8.4.1c0,2.3,1.4,4.1,3.2,4.1s3.2-1.7,3.2-4.1c0-1.8-.9-4.1-3.1-4.1S376.9,665.2,376.9,667.2Z" transform="translate(-339.9 -657)"/><path class="cls-1" d="M397.3,667.1c0,3.9-2.7,5.6-5.3,5.6-2.9,0-5-2.1-5-5.4,0-3.6,2.3-5.6,5.2-5.6S397.3,663.9,397.3,667.1Zm-8.4.1c0,2.3,1.4,4.1,3.2,4.1s3.2-1.7,3.2-4.1c0-1.8-.9-4.1-3.1-4.1S388.9,665.2,388.9,667.2Z" transform="translate(-339.9 -657)"/><path class="cls-1" d="M399.7,657h1.9v15.5h-1.9Z" transform="translate(-339.9 -657)"/><path class="cls-1" d="M404.6,670.5a4.51,4.51,0,0,0,2.5.7c1.4,0,2-.7,2-1.6s-.6-1.4-2-2c-1.9-.7-2.8-1.7-2.8-3,0-1.7,1.4-3.1,3.6-3.1a4.84,4.84,0,0,1,2.6.7l-.5,1.4a4.28,4.28,0,0,0-2.2-.6,1.62,1.62,0,0,0-1.8,1.4c0,.9.6,1.3,2,1.8,1.9.7,2.8,1.6,2.8,3.2,0,1.8-1.4,3.2-3.9,3.2a6.3,6.3,0,0,1-3-.7Z" transform="translate(-339.9 -657)"/><path class="cls-1" d="M350.7,672.6H348l-2.7-3.8-2.7,3.8h-2.7l4-5.6-3.9-5.4h2.7l2.5,3.6,2.5-3.6h2.7l-3.9,5.3Z" transform="translate(-339.9 -657)"/><path class="cls-1" d="M358.5,672.9a6.11,6.11,0,0,1-.7,1.4,2.36,2.36,0,0,1-.8.9,4.05,4.05,0,0,1-.9.5,5,5,0,0,1-1.2.2,6.75,6.75,0,0,1-1.4-.2,6.12,6.12,0,0,1-1.2-.5l.8-1.9c.2.1.5.2.7.3a2,2,0,0,0,.8.1,1.61,1.61,0,0,0,.9-.3,3.59,3.59,0,0,0,.7-1l-4.6-10.9h2.7l3.1,8.1,2.8-8.1h2.6Z" transform="translate(-339.9 -657)"/></svg>